# xmcd
#
# Track frame offsets:
#	187
#	15867
#	35055
#	56880
#	85042
#	99260
#	117187
#	138572
#	160850
#	171170
#	191007
#	212047
#
# Disc length: 3165 seconds
#
# Revision: 1
# Processed by: cddbd v1.5PL3 Copyright (c) Steve Scherf et al.
# Submitted via: CDex 1.50Beta5
#
DISCID=9b0c5b0c
DTITLE=CASCADE - YELLOW MAGICAL TYPHOON
DYEAR=1997
DGENRE=Rock
TTITLE0=arigatai digi maniax
TTITLE1=AHAHA
TTITLE2=マジカル ジャーニー
TTITLE3=YELLOW YELLOW FIRE
TTITLE4=jordan AMERICA
TTITLE5=ミダラナ キャンディー
TTITLE6=満月の夜には
TTITLE7=Super Boy Super Girl
TTITLE8=マスクマン
TTITLE9=OH YEAH BABY
TTITLE10=yellow shuttle
TTITLE11=Shinning Blue
EXTD=
EXTT0=
EXTT1=
EXTT2=
EXTT3=
EXTT4=
EXTT5=
EXTT6=
EXTT7=
EXTT8=
EXTT9=
EXTT10=
EXTT11=
PLAYORDER=
